<svg width="518" height="496" viewBox="0 0 518 496" fill="none" xmlns="http://www.w3.org/2000/svg">
<path d="M391.913 74.3999C408.365 76.7427 424.777 83.6267 435.349 96.4496C445.659 108.944 449.373 125.633 450.456 141.796C453.186 182.673 441.669 226.563 460.365 263.017C470.957 283.675 489.962 298.762 502.456 318.325C522.518 349.719 523.286 392.867 502.935 424.085C482.585 455.295 441.623 472.043 405.621 462.448C364.994 451.627 335.6 412.108 294.054 405.644C262.075 400.67 230.891 416.564 202.863 432.747C174.841 448.93 145.179 466.491 112.839 465.231C84.4636 464.128 58.0695 447.998 40.0229 426.073C21.9828 404.148 11.4961 376.894 4.90084 349.28C-2.29156 319.171 -3.95838 283.905 16.746 260.891C37.6408 237.666 72.7825 235.855 104.02 235.507C135.257 235.166 170.51 232.843 190.827 209.12C204.418 193.252 207.916 171.392 215.922 152.092C228.587 121.557 254.404 97.3159 284.735 84.657C300.511 78.0749 316.976 75.1086 334.019 74.9249C353.24 74.7149 372.744 71.6831 391.9 74.4065L391.913 74.3999Z" fill="#D7DEC4"/>
<path d="M283.567 333.576C223.81 333.576 231.914 229.05 231.914 229.05C248.169 220.709 255.539 206.009 258.84 193.337C262.18 180.521 261.367 169.771 261.367 169.771H301.601C301.535 182.017 303.569 191.834 306.667 199.676C316.11 223.557 335.45 229.096 335.45 229.096C335.45 229.096 343.324 333.582 283.567 333.582V333.576Z" fill="#EB9064"/>
<g style="mix-blend-mode:overlay" opacity="0.1">
<path d="M306.667 199.676C290.687 203.483 273.271 201.199 258.847 193.337C262.187 180.521 261.373 169.771 261.373 169.771H301.607C301.542 182.017 303.576 191.834 306.673 199.676H306.667Z" fill="black"/>
</g>
<path d="M362.605 353.277C362.605 353.277 373.512 413.724 399.368 435.531C425.23 457.337 436.537 429.611 433.223 414.964C429.902 400.323 411.836 333.57 411.836 333.57L362.611 353.271L362.605 353.277Z" fill="#EB9064"/>
<path d="M335.614 142.085C333.107 143.312 331.072 143.515 329.484 143.272C326.623 142.839 325.238 140.936 325.238 140.936V124.878C325.238 124.878 331.013 111.852 337.655 113.381C339.512 113.814 340.719 115.979 341.336 118.952C342.937 126.61 340.667 139.611 335.614 142.091V142.085Z" fill="#EB9064"/>
<path d="M235.819 87.4991C235.819 87.4991 229.44 148.11 240.642 168.768C249.37 184.879 265.219 190.116 280.712 190.116C296.206 190.116 320.874 183.573 324.668 161.877C328.461 140.182 330.521 111.255 324.668 85.0842C318.814 58.9133 255.454 40.3154 235.826 87.4926L235.819 87.4991Z" fill="#EB9064"/>
<path d="M268.218 125.016C268.493 125.036 268.743 125.567 268.874 126.552C268.999 127.536 269.005 128.98 268.631 130.765C268.25 132.537 267.456 134.676 265.776 136.671C264.083 138.627 261.524 140.307 258.341 140.628C256.773 140.799 255.119 140.523 253.741 139.919C252.356 139.309 251.221 138.423 250.342 137.478C248.563 135.569 247.71 133.429 247.244 131.716C246.785 129.984 246.667 128.586 246.667 127.615C246.667 126.644 246.818 126.079 247.087 126.014C247.362 125.948 247.736 126.388 248.202 127.228C248.668 128.061 249.206 129.295 249.928 130.686C250.657 132.077 251.602 133.6 252.98 134.814C253.662 135.418 254.443 135.923 255.277 136.244C255.697 136.402 256.123 136.514 256.569 136.566C257.016 136.632 257.482 136.632 257.961 136.586C258.919 136.5 259.87 136.185 260.743 135.759C261.603 135.313 262.39 134.755 263.04 134.125C264.352 132.845 265.265 131.283 265.901 129.885C266.544 128.481 266.951 127.234 267.306 126.368C267.647 125.502 267.935 124.996 268.224 125.016H268.218Z" fill="#5F4740"/>
<path d="M293.982 125.016C294.264 124.996 294.553 125.495 294.9 126.368C295.248 127.234 295.662 128.481 296.305 129.885C296.941 131.283 297.86 132.845 299.166 134.125C299.816 134.755 300.603 135.313 301.463 135.759C302.336 136.185 303.281 136.5 304.245 136.586C304.724 136.632 305.19 136.632 305.637 136.566C306.083 136.514 306.509 136.402 306.929 136.244C307.763 135.929 308.544 135.424 309.226 134.814C310.604 133.6 311.549 132.071 312.278 130.686C313.006 129.295 313.538 128.061 314.004 127.228C314.463 126.388 314.844 125.948 315.119 126.014C315.388 126.079 315.533 126.644 315.539 127.615C315.539 128.586 315.421 129.984 314.962 131.716C314.496 133.423 313.643 135.569 311.864 137.478C310.978 138.423 309.85 139.316 308.465 139.919C307.08 140.53 305.433 140.799 303.865 140.628C300.682 140.3 298.123 138.627 296.429 136.671C294.749 134.676 293.955 132.537 293.575 130.765C293.201 128.98 293.214 127.536 293.332 126.552C293.463 125.567 293.713 125.029 293.988 125.016H293.982Z" fill="#5F4740"/>
<path d="M268.762 112.488C268.559 112.935 266.912 112.547 264.333 112.186C264.011 112.14 263.676 112.095 263.322 112.049C262.974 112.003 262.6 111.983 262.226 111.944C261.478 111.852 260.664 111.839 259.818 111.793C258.125 111.766 256.268 111.832 254.338 112.075C252.409 112.344 250.604 112.77 248.977 113.236C248.176 113.505 247.395 113.722 246.693 114.011C246.339 114.149 245.984 114.26 245.663 114.398C245.334 114.536 245.026 114.667 244.724 114.798C242.335 115.829 240.846 116.629 240.531 116.255C240.255 115.94 241.259 114.45 243.569 112.77C243.865 112.567 244.173 112.357 244.495 112.141C244.823 111.924 245.177 111.74 245.545 111.537C246.266 111.11 247.093 110.756 247.959 110.375C249.718 109.68 251.733 109.109 253.898 108.807C256.071 108.531 258.164 108.551 260.041 108.761C260.979 108.899 261.865 109.023 262.679 109.246C263.086 109.351 263.48 109.437 263.847 109.555C264.215 109.68 264.569 109.804 264.904 109.922C267.575 110.933 268.933 112.108 268.749 112.482L268.762 112.488Z" fill="#5F4740"/>
<path d="M291.882 112.488C291.698 112.113 293.056 110.939 295.727 109.928C296.062 109.81 296.416 109.685 296.784 109.561C297.151 109.436 297.552 109.357 297.952 109.252C298.766 109.029 299.652 108.905 300.59 108.767C302.467 108.557 304.567 108.537 306.732 108.813C308.898 109.114 310.919 109.685 312.671 110.381C313.538 110.762 314.364 111.109 315.086 111.543C315.454 111.753 315.808 111.936 316.136 112.146C316.458 112.363 316.766 112.579 317.062 112.776C319.372 114.456 320.376 115.946 320.1 116.261C319.785 116.635 318.295 115.834 315.907 114.804C315.605 114.679 315.296 114.542 314.968 114.404C314.647 114.266 314.292 114.154 313.938 114.017C313.236 113.728 312.455 113.505 311.654 113.242C310.027 112.77 308.222 112.35 306.293 112.081C304.363 111.838 302.506 111.772 300.813 111.799C299.967 111.844 299.159 111.858 298.405 111.949C298.031 111.989 297.657 112.002 297.309 112.054C296.961 112.1 296.62 112.146 296.298 112.192C293.726 112.56 292.072 112.94 291.869 112.494L291.882 112.488Z" fill="#5F4740"/>
<path d="M283.456 146.652C283.607 146.718 283.626 147.217 283.337 148.122C283.18 148.562 282.931 149.14 282.36 149.684C282.077 149.947 281.723 150.196 281.27 150.36C280.824 150.524 280.247 150.59 279.676 150.426C279.105 150.268 278.599 149.907 278.212 149.461C277.838 149.008 277.556 148.477 277.412 147.873C277.129 146.659 277.379 145.484 277.628 144.467C278.12 142.485 278.612 140.333 279 138.029C280.64 128.835 280.096 121.157 280.831 121.079C281.159 121.039 281.749 122.929 282.045 126.092C282.36 129.242 282.333 133.672 281.493 138.463C281.087 140.851 280.502 143.109 279.872 145.091C279.564 146.042 279.38 146.843 279.466 147.446C279.538 148.05 279.899 148.569 280.233 148.72C280.562 148.91 281.073 148.811 281.48 148.569C281.887 148.339 282.209 147.971 282.465 147.656C282.97 147 283.278 146.574 283.449 146.652H283.456Z" fill="#5F4740"/>
<path d="M288.942 164.095C288.817 163.413 288.614 163.071 288.489 163.071C288.469 162.96 288.436 162.842 288.397 162.697C288.24 162.212 287.99 161.516 287.432 160.735C287.157 160.348 286.796 159.941 286.304 159.593C285.818 159.246 285.195 158.976 284.519 158.885C284.197 158.845 283.81 158.812 283.449 158.871C283.088 158.917 282.747 159.009 282.425 159.108C282.123 159.206 281.821 159.311 281.513 159.416C281.375 159.462 281.244 159.495 281.146 159.508C281.073 159.521 280.949 159.515 280.844 159.508C280.391 159.455 279.833 159.147 279.19 158.891C278.862 158.766 278.494 158.648 278.107 158.609C277.72 158.57 277.339 158.609 276.998 158.701C275.613 159.081 274.787 160.04 274.281 160.814C273.776 161.608 273.52 162.297 273.363 162.776C273.297 162.999 273.251 163.17 273.231 163.301C273.225 163.301 273.218 163.295 273.212 163.295C273.094 163.275 272.89 163.629 272.779 164.331C272.667 165.034 272.687 166.09 273.074 167.33C273.468 168.558 274.262 169.975 275.64 171.104C277.005 172.252 278.954 172.948 280.988 172.922C283.022 172.889 284.952 172.134 286.284 170.953C287.623 169.785 288.377 168.341 288.738 167.107C289.093 165.854 289.08 164.797 288.948 164.102L288.942 164.095Z" fill="#DF7C65"/>
<path d="M306.457 155.978C312.647 155.978 317.665 153.469 317.665 150.374C317.665 147.279 312.647 144.77 306.457 144.77C300.266 144.77 295.248 147.279 295.248 150.374C295.248 153.469 300.266 155.978 306.457 155.978Z" fill="#DF7C65"/>
<path d="M255.29 155.978C261.48 155.978 266.498 153.469 266.498 150.374C266.498 147.279 261.48 144.77 255.29 144.77C249.099 144.77 244.081 147.279 244.081 150.374C244.081 153.469 249.099 155.978 255.29 155.978Z" fill="#DF7C65"/>
<path d="M293.168 155.979C293.319 156.018 293.365 156.517 293.188 157.363C293.004 158.21 292.564 159.411 291.705 160.736C290.838 162.042 289.526 163.473 287.708 164.582C285.897 165.704 283.58 166.426 281.126 166.478C278.665 166.524 276.322 165.907 274.465 164.864C272.601 163.834 271.23 162.462 270.311 161.189C269.392 159.903 268.907 158.722 268.69 157.882C268.474 157.042 268.5 156.543 268.651 156.497C268.999 156.372 269.688 158.098 271.617 160.106C272.582 161.097 273.874 162.134 275.482 162.902C277.077 163.676 279.026 164.122 281.08 164.083C283.134 164.031 285.057 163.506 286.619 162.666C288.194 161.832 289.44 160.736 290.359 159.713C292.203 157.626 292.814 155.874 293.174 155.985L293.168 155.979Z" fill="#5F4740"/>
<path d="M332.247 140.681C333.349 140.681 334.242 139.788 334.242 138.686C334.242 137.585 333.349 136.691 332.247 136.691C331.145 136.691 330.252 137.585 330.252 138.686C330.252 139.788 331.145 140.681 332.247 140.681Z" fill="#F4EBDB"/>
<path d="M336.309 136.107C337.208 136.107 337.937 135.378 337.937 134.479C337.937 133.58 337.208 132.852 336.309 132.852C335.41 132.852 334.682 133.58 334.682 134.479C334.682 135.378 335.41 136.107 336.309 136.107Z" fill="#F4EBDB"/>
<path d="M339.544 129.165C339.544 129.893 338.954 130.484 338.225 130.484C337.497 130.484 336.906 129.893 336.906 129.165C336.906 128.436 337.497 127.846 338.225 127.846C338.954 127.846 339.544 128.436 339.544 129.165Z" fill="#F4EBDB"/>
<path d="M337.628 124.819C337.976 125.207 336.204 127.3 334.36 130.05C332.49 132.786 331.21 135.208 330.718 135.031C330.488 134.945 330.515 134.197 330.856 133.088C331.191 131.972 331.86 130.502 332.851 129.033C333.848 127.563 334.964 126.394 335.876 125.673C336.788 124.944 337.464 124.642 337.635 124.826L337.628 124.819Z" fill="#5F4740"/>
<path d="M334.721 121.775C334.997 121.919 334.439 123.442 334.13 125.365C333.796 127.281 333.822 128.902 333.514 128.948C333.369 128.967 333.172 128.567 333.048 127.885C332.923 127.202 332.89 126.231 333.067 125.181C333.245 124.131 333.592 123.225 333.94 122.621C334.281 122.018 334.603 121.703 334.728 121.768L334.721 121.775Z" fill="#5F4740"/>
<path d="M281.034 330.852C280.745 330.878 280.306 329.277 279.945 326.632C279.761 325.313 279.61 323.732 279.505 321.973C279.407 320.214 279.354 318.279 279.387 316.244C279.42 314.21 279.531 312.274 279.689 310.522C279.853 308.77 280.05 307.195 280.279 305.882C280.726 303.251 281.218 301.663 281.5 301.702C282.11 301.787 281.644 308.284 281.533 316.284C281.395 324.277 281.651 330.786 281.041 330.852H281.034Z" fill="#5F4740"/>
<path d="M135.106 256.934C135.106 256.934 47.6878 293.67 47.3137 333.576L99.5834 336.037L160.286 299.675L135.099 256.934H135.106Z" fill="#EB9064"/>
<path d="M232.4 224.502C232.4 224.502 260.776 322.374 280.581 322.374C300.387 322.374 334.341 224.502 334.341 224.502C334.341 224.502 366.555 230.054 375.71 238.27C384.865 246.486 420.308 297.213 433.216 333.582C433.216 333.582 405.051 358.454 359.744 365.023L352.938 337.559C352.938 337.559 343.567 398.675 355.025 459.883H196.674C196.674 459.883 206.15 382.879 199.831 323.253L165.477 322.466C165.477 322.466 127.172 312.596 102.687 264.415C102.687 264.415 146.124 239.116 177.322 232.022C208.519 224.928 232.393 224.509 232.393 224.509L232.4 224.502Z" fill="#F3E3D4"/>
<path d="M338.921 368.744C338.967 368.862 338.685 369.098 338.101 369.439C337.812 369.61 337.445 369.807 337.005 370.03C336.572 370.26 336.053 370.483 335.463 370.732C333.127 371.743 329.622 372.97 325.134 373.882C320.651 374.788 315.185 375.418 309.101 375.175C306.063 375.05 302.874 374.735 299.612 374.158C298.799 373.994 297.978 373.83 297.151 373.665C296.325 373.488 295.504 373.272 294.671 373.068C293.004 372.655 291.37 372.15 289.749 371.697C288.935 371.467 288.141 371.257 287.347 371.067C286.56 370.883 285.779 370.719 285.011 370.594C283.475 370.351 281.979 370.253 280.542 370.384C277.648 370.627 274.813 371.69 272.024 372.694C270.626 373.199 269.222 373.698 267.811 374.105C267.634 374.158 267.456 374.204 267.279 374.256C267.102 374.302 266.925 374.341 266.748 374.387C266.393 374.473 266.045 374.558 265.691 374.643C265.337 374.709 264.989 374.774 264.641 374.84C264.471 374.873 264.293 374.906 264.123 374.939C263.952 374.971 263.775 374.991 263.604 375.011C260.861 375.411 258.276 375.437 255.953 375.227C253.623 375.017 251.556 374.571 249.79 374.039C248.025 373.501 246.555 372.904 245.413 372.314C245.125 372.163 244.849 372.038 244.606 371.894C244.363 371.749 244.134 371.611 243.917 371.487C243.707 371.355 243.51 371.237 243.34 371.126C243.169 371.001 243.018 370.89 242.88 370.785C242.342 370.371 242.093 370.102 242.152 369.99C242.211 369.879 242.578 369.931 243.215 370.128C243.372 370.174 243.55 370.233 243.74 370.305C243.937 370.364 244.147 370.43 244.376 370.502C244.606 370.575 244.849 370.66 245.105 370.745C245.361 370.837 245.65 370.909 245.945 371.001C247.12 371.375 248.576 371.743 250.276 372.064C251.976 372.386 253.931 372.629 256.097 372.661C258.256 372.694 260.618 372.524 263.092 372.038C263.25 372.005 263.401 371.985 263.558 371.946C263.716 371.907 263.867 371.874 264.024 371.835C264.333 371.762 264.648 371.684 264.963 371.611C265.271 371.52 265.586 371.428 265.901 371.336C266.059 371.29 266.216 371.244 266.374 371.198C266.531 371.145 266.689 371.093 266.853 371.04C268.132 370.614 269.445 370.102 270.823 369.551C272.208 369.006 273.645 368.429 275.2 367.93C276.755 367.438 278.416 367.005 280.194 366.827C281.979 366.637 283.797 366.742 285.556 367.011C286.435 367.149 287.308 367.326 288.167 367.523C289.027 367.726 289.874 367.95 290.714 368.186C292.394 368.652 294.001 369.164 295.57 369.557C296.357 369.754 297.138 369.964 297.919 370.141C298.7 370.312 299.481 370.476 300.249 370.64C303.346 371.237 306.365 371.605 309.259 371.815C315.054 372.228 320.31 371.887 324.687 371.336C329.071 370.778 332.575 369.958 335.003 369.38C336.23 369.118 337.162 368.855 337.825 368.75C338.481 368.632 338.855 368.625 338.901 368.75L338.921 368.744Z" fill="#5F4740"/>
<path d="M214.688 295.101C214.688 295.101 215.928 294.346 219.216 295.101C222.504 295.856 225.792 296.512 230.943 296.079C236.095 295.646 243.307 295.587 246.837 299.59C246.837 299.59 237.63 304.151 225.68 301.703C213.73 299.262 214.682 295.108 214.682 295.108L214.688 295.101Z" fill="#E4825D"/>
<path d="M256.294 343.42C256.294 344.766 241.102 345.848 222.366 345.848C203.63 345.848 188.438 344.759 188.438 343.42C188.438 342.082 203.63 340.992 222.366 340.992C241.102 340.992 256.294 342.082 256.294 343.42Z" fill="#A2BCAB"/>
<path opacity="0.8" d="M188.432 343.42C188.432 343.42 198.453 382.86 197.816 387.316C197.18 391.772 175.727 478.671 193.137 489.808C210.547 500.951 248.74 494.585 255.106 489.808C261.471 485.03 267.837 480.259 264.339 457.343C260.842 434.427 244.921 387.316 245.558 384.133C246.194 380.95 256.287 343.42 256.287 343.42H188.432Z" fill="#A2BCAB"/>
<path d="M202.981 268.812C194.574 270.813 186.05 266.075 179.428 260.523C172.807 254.972 166.796 248.271 158.744 245.141C151.321 242.254 143.059 242.766 135.204 241.433C121.062 239.038 108.423 230.579 99.0715 219.705C89.72 208.831 83.407 195.66 78.6033 182.148C89.5626 192.714 104.138 199.053 118.824 203.083C133.505 207.112 148.657 210.117 162.222 217.034C182.362 227.304 196.851 247.057 202.987 268.818L202.981 268.812Z" fill="#1F8282"/>
<path d="M228.167 283.741C231.048 270.216 234.257 256.014 243.497 245.725C255.375 232.488 275.075 228.203 286.402 214.494C283.213 229.417 275.528 243.69 263.401 252.95C257.409 257.524 250.644 261.028 244.757 265.747C238.359 270.878 232.682 276.89 228.167 283.741Z" fill="#1F8282"/>
<path d="M194.331 210.663C199.083 196.219 194.292 180.279 186.995 166.944C179.691 153.602 169.906 141.665 163.528 127.865C158.415 116.813 155.574 104.732 149.517 94.1666C136.786 71.9659 111.212 58.7295 100.811 35.3477C96.0987 50.999 103.475 68.5666 111.684 82.702C119.887 96.8375 130.295 110.002 135.099 125.627C139.148 138.804 138.951 152.926 142.167 166.333C144.759 177.135 149.589 187.386 156.263 196.265C160.778 202.269 166.271 207.749 173.076 210.938C179.881 214.127 187.644 214.082 194.338 210.663H194.331Z" fill="#0A5C5C"/>
<path d="M225.404 324.179C225.129 324.179 224.893 323.969 224.866 323.687C223.967 314.69 223.232 305.148 224.866 296.033C228.686 274.836 240.321 255.411 256.779 242.726C257.016 242.542 257.357 242.588 257.541 242.825C257.724 243.061 257.678 243.402 257.442 243.586C241.194 256.107 229.709 275.289 225.936 296.223C224.315 305.2 225.05 314.657 225.936 323.575C225.969 323.877 225.746 324.139 225.45 324.172C225.431 324.172 225.411 324.172 225.398 324.172L225.404 324.179Z" fill="#0E5050"/>
<path d="M225.404 324.178C225.116 324.178 224.873 323.949 224.86 323.66C224.742 320.884 224.781 318.312 224.82 315.818C224.899 310.666 224.965 306.217 223.659 301.86C218.685 285.322 207.023 273.123 195.742 261.324C194.443 259.965 193.104 258.561 191.792 257.176C174.539 238.906 152.739 225.316 128.747 217.867C128.458 217.775 128.3 217.474 128.386 217.185C128.478 216.896 128.78 216.739 129.068 216.824C153.244 224.325 175.202 238.02 192.586 256.421C193.892 257.806 195.237 259.21 196.53 260.562C207.896 272.453 219.656 284.745 224.702 301.532C226.061 306.053 225.995 310.581 225.91 315.824C225.87 318.298 225.831 320.864 225.949 323.601C225.962 323.903 225.726 324.152 225.431 324.165C225.424 324.165 225.418 324.165 225.404 324.165V324.178Z" fill="#0E5050"/>
<path d="M225.405 324.178C225.405 324.178 225.391 324.178 225.378 324.178C225.076 324.165 224.847 323.909 224.86 323.614C225.221 315.267 224.177 306.355 223.173 297.732C223.036 296.537 222.898 295.35 222.76 294.181C220.142 271.115 212.057 248.12 197.324 221.818C193.052 214.192 188.504 206.554 184.107 199.158C175.281 184.333 166.159 169.004 158.829 153.057C154.747 144.171 151.066 134.794 147.509 125.731C137.869 101.174 127.907 75.791 108.863 57.495C108.646 57.285 108.64 56.9437 108.85 56.7272C109.06 56.5106 109.401 56.504 109.617 56.714C128.832 75.1675 138.84 100.669 148.526 125.337C152.076 134.387 155.751 143.745 159.826 152.604C167.13 168.498 176.239 183.802 185.052 198.6C189.456 205.996 194.01 213.648 198.289 221.28C213.093 247.713 221.218 270.839 223.856 294.05C223.987 295.218 224.125 296.4 224.269 297.594C225.28 306.256 226.33 315.221 225.962 323.653C225.949 323.949 225.706 324.172 225.418 324.172L225.405 324.178Z" fill="#0E5050"/>
<path d="M199.726 279.81C200.152 279.869 199.168 288.65 199.161 299.517C199.109 310.384 200.047 319.178 199.614 319.231C199.424 319.257 198.945 317.078 198.505 313.515C198.394 312.622 198.282 311.644 198.19 310.594C198.085 309.544 198.013 308.416 197.928 307.234C197.79 304.865 197.698 302.254 197.704 299.511C197.718 296.767 197.823 294.156 197.974 291.787C198.059 290.605 198.144 289.477 198.256 288.427C198.354 287.377 198.472 286.399 198.584 285.506C199.05 281.943 199.535 279.777 199.726 279.797V279.81Z" fill="#5F4740"/>
<path d="M181.18 273.741C181.279 273.721 181.476 274.233 181.745 275.171C181.81 275.408 181.883 275.67 181.961 275.952C182.047 276.234 182.132 276.543 182.23 276.878C182.427 277.54 182.618 278.302 182.88 279.128C183.005 279.542 183.136 279.982 183.267 280.434C183.405 280.887 183.563 281.353 183.713 281.839C184.009 282.817 184.383 283.84 184.75 284.923C185.525 287.076 186.437 289.425 187.5 291.84C188.576 294.255 189.705 296.506 190.775 298.527C191.326 299.531 191.838 300.489 192.363 301.369C192.619 301.808 192.855 302.241 193.104 302.648C193.347 303.055 193.583 303.442 193.813 303.81C194.253 304.558 194.686 305.214 195.047 305.805C195.23 306.1 195.395 306.376 195.552 306.625C195.71 306.874 195.854 307.104 195.985 307.314C196.497 308.147 196.746 308.633 196.668 308.699C196.589 308.764 196.195 308.384 195.545 307.642C195.381 307.458 195.204 307.248 195.007 307.025C194.817 306.796 194.62 306.54 194.404 306.264C193.977 305.713 193.485 305.089 192.986 304.368C192.737 304.007 192.468 303.633 192.192 303.239C191.916 302.845 191.654 302.418 191.372 301.985C190.801 301.126 190.243 300.168 189.646 299.17C188.491 297.149 187.31 294.878 186.214 292.424C185.131 289.963 184.238 287.561 183.517 285.35C183.175 284.241 182.841 283.184 182.591 282.18C182.46 281.681 182.322 281.202 182.217 280.73C182.112 280.264 182.007 279.811 181.915 279.384C181.712 278.531 181.587 277.744 181.463 277.055C181.403 276.714 181.344 276.392 181.305 276.097C181.272 275.801 181.233 275.526 181.207 275.283C181.102 274.305 181.082 273.76 181.18 273.741Z" fill="#5F4740"/>
<path d="M223.902 450.479C223.803 450.558 223.685 450.591 223.567 450.591C223.403 450.591 223.245 450.519 223.134 450.381C222.95 450.138 222.99 449.797 223.232 449.62C227.373 446.404 229.453 440.583 228.285 435.478C227.741 433.102 226.573 430.864 225.437 428.705C225.004 427.879 224.551 427.019 224.138 426.159C222.176 422.058 221.677 418.658 222.609 415.777C223.121 414.202 224.053 412.824 224.958 411.492C225.975 409.996 226.94 408.578 227.314 406.925C227.931 404.234 226.861 401.445 225.824 398.748C225.667 398.348 225.516 397.947 225.372 397.547C220.929 385.544 221.907 372.485 222.852 359.859C223.114 356.355 223.377 352.811 223.534 349.261C223.81 342.777 223.718 336.274 222.537 329.987C222.478 329.692 222.674 329.41 222.97 329.35C223.265 329.298 223.554 329.488 223.606 329.784C224.814 336.202 224.906 342.81 224.617 349.386C224.466 352.923 224.204 356.447 223.941 359.931C223.003 372.446 222.038 385.38 226.395 397.16C226.54 397.554 226.691 397.947 226.848 398.348C227.944 401.196 229.073 404.149 228.377 407.161C227.957 409.012 226.888 410.58 225.857 412.096C224.958 413.422 224.105 414.675 223.646 416.106C222.799 418.717 223.285 421.848 225.122 425.687C225.523 426.527 225.969 427.38 226.402 428.2C227.57 430.425 228.771 432.722 229.348 435.235C230.628 440.833 228.436 446.962 223.902 450.486V450.479Z" fill="#F3E3D4"/>
<path d="M243.451 444.206C243.326 444.206 243.195 444.16 243.097 444.075C242.867 443.878 242.847 443.53 243.044 443.307C245.236 440.793 244.705 437.414 241.377 432.676C240.491 431.416 239.487 430.372 238.516 429.362C236.685 427.452 234.953 425.647 234.244 422.707C233.384 419.137 234.297 415.482 235.176 411.945C236.108 408.218 236.981 404.693 235.957 401.268C234.959 397.934 232.282 395.375 229.69 392.894C229.434 392.651 229.178 392.402 228.922 392.159L228.659 391.91C225.838 389.186 222.32 385.794 222.215 381.718C222.209 381.417 222.445 381.167 222.747 381.161C223.055 381.148 223.298 381.39 223.304 381.692C223.396 385.321 226.592 388.406 229.414 391.129L229.677 391.378C229.926 391.621 230.182 391.864 230.438 392.113C233.128 394.686 235.911 397.35 236.994 400.959C238.109 404.667 237.151 408.5 236.226 412.214C235.379 415.62 234.5 419.144 235.294 422.458C235.931 425.116 237.492 426.737 239.297 428.614C240.295 429.65 241.331 430.727 242.263 432.059C244.567 435.34 247.244 440.15 243.864 444.029C243.759 444.153 243.609 444.212 243.451 444.212V444.206Z" fill="#F3E3D4"/>
<path d="M209.012 457.389C208.808 457.389 208.611 457.271 208.519 457.074C203.86 447.02 204.208 440.261 209.845 431.231C210.593 430.037 211.44 428.836 212.253 427.681C214.983 423.809 217.812 419.806 217.398 415.297C217.215 413.27 216.466 411.288 215.745 409.372C215.521 408.787 215.298 408.177 215.088 407.573C212.949 401.444 215.121 397.73 217.635 393.432C219.466 390.308 221.533 386.757 222.222 381.632C222.261 381.337 222.537 381.12 222.832 381.166C223.127 381.206 223.337 381.481 223.298 381.777C222.583 387.125 220.45 390.767 218.573 393.983C216.099 398.215 214.143 401.562 216.112 407.219C216.316 407.81 216.545 408.407 216.762 408.991C217.51 410.979 218.278 413.033 218.475 415.206C218.921 420.114 215.981 424.288 213.133 428.317C212.326 429.466 211.486 430.654 210.757 431.822C205.35 440.477 205.022 446.974 209.497 456.627C209.622 456.903 209.504 457.225 209.235 457.349C209.162 457.382 209.084 457.402 209.005 457.402L209.012 457.389Z" fill="#F3E3D4"/>
<path d="M224.617 349.385C224.578 349.385 224.532 349.385 224.492 349.385C224.164 349.385 223.843 349.339 223.534 349.247C223.81 342.763 223.718 336.26 222.537 329.973C222.478 329.678 222.674 329.396 222.97 329.337C223.265 329.284 223.554 329.475 223.606 329.77C224.814 336.188 224.906 342.796 224.617 349.372V349.385Z" fill="#0E5050"/>
<path d="M250.525 319.519C250.525 319.519 253.124 320.72 248.727 325.72C244.324 330.721 237.079 334.822 231.547 335.026C226.015 335.229 187.093 331.521 185.295 331.922C183.497 332.322 119.841 355.756 98.1133 358.703C76.3852 361.649 47.3203 365.771 47.3203 333.575C47.3203 303.664 103.632 304.563 115.602 305.121C127.572 305.672 178.759 303.461 183.917 303.461C189.075 303.461 194.043 302.542 199.568 299.779C205.094 297.016 211.833 295.133 214.681 295.1C218.691 295.048 224.099 300.265 235.379 299.188C246.66 298.112 252.888 296.931 253.636 298.65C254.391 300.37 252.455 302.516 252.455 302.516C252.455 302.516 255.355 305.226 252.999 309.432C252.999 309.432 255.5 314.761 250.525 319.519Z" fill="#EB9064"/>
<g style="mix-blend-mode:overlay" opacity="0.3">
<path d="M190.335 467.239C190.236 472.666 190.453 478.644 194.102 482.667C197.324 486.224 202.41 487.313 207.168 487.937C217.392 489.288 227.78 489.407 238.037 488.284C243.963 487.635 250.217 486.401 254.535 482.293C259.45 477.627 260.743 470.251 260.336 463.485C259.936 456.877 258.19 450.439 256.458 444.047C254.325 436.212 252.199 428.37 250.066 420.534C249.659 419.051 249.219 417.496 248.156 416.387C245.761 413.893 241.581 414.805 238.496 416.373C235.419 417.942 232.197 420.062 228.804 419.405C224.624 418.598 221.749 413.788 217.497 413.913C213.034 414.044 210.127 419.609 205.658 419.635C203.545 419.648 201.668 418.388 199.673 417.712C194.843 416.078 194.187 419.392 193.675 423.172C193.019 428.041 192.461 432.924 191.995 437.813C191.063 447.591 190.512 457.408 190.335 467.232V467.239Z" fill="white"/>
</g>
<path d="M252.232 302.568C252.264 302.627 251.982 302.851 251.444 303.218C251.306 303.31 251.155 303.408 250.991 303.52C250.821 303.625 250.637 303.73 250.434 303.848C250.033 304.078 249.574 304.347 249.049 304.596C248.786 304.727 248.511 304.859 248.229 305.003C247.94 305.141 247.638 305.266 247.323 305.41C246.7 305.699 246.011 305.948 245.289 306.224C243.832 306.742 242.198 307.221 240.452 307.595C238.707 307.956 237.013 308.173 235.471 308.284C234.697 308.324 233.968 308.37 233.279 308.363C232.938 308.363 232.603 308.37 232.288 308.363C231.973 308.35 231.665 308.337 231.376 308.324C230.792 308.304 230.267 308.238 229.808 308.192C229.578 308.166 229.362 308.146 229.165 308.12C228.968 308.087 228.791 308.055 228.627 308.028C227.984 307.91 227.636 307.818 227.642 307.753C227.649 307.687 228.01 307.661 228.66 307.667C228.824 307.667 229.001 307.667 229.198 307.674C229.394 307.674 229.604 307.674 229.834 307.674C230.293 307.674 230.812 307.687 231.383 307.661C231.672 307.661 231.967 307.648 232.282 307.641C232.597 307.635 232.919 307.608 233.253 307.595C233.929 307.569 234.644 307.497 235.393 307.438C236.895 307.28 238.542 307.044 240.249 306.69C241.955 306.322 243.556 305.876 245 305.417C245.715 305.167 246.398 304.951 247.028 304.701C247.343 304.583 247.651 304.471 247.94 304.353C248.229 304.235 248.504 304.117 248.773 304.012C249.311 303.802 249.777 303.579 250.197 303.395C250.407 303.303 250.604 303.218 250.781 303.139C250.959 303.061 251.123 302.982 251.267 302.916C251.858 302.654 252.199 302.529 252.232 302.588V302.568Z" fill="#5F4740"/>
<path d="M231.665 319.034C231.652 318.903 232.938 318.674 234.979 318.181C235.235 318.116 235.504 318.05 235.78 317.984C236.055 317.912 236.344 317.827 236.639 317.748C237.237 317.591 237.867 317.394 238.529 317.19C239.848 316.764 241.279 316.245 242.749 315.629C244.219 314.999 245.584 314.323 246.805 313.673C247.408 313.338 247.992 313.023 248.517 312.702C248.78 312.544 249.042 312.4 249.285 312.242C249.528 312.091 249.758 311.94 249.981 311.803C251.753 310.674 252.809 309.906 252.894 310.005C252.96 310.083 252.035 311.028 250.322 312.301C250.105 312.459 249.882 312.623 249.646 312.794C249.41 312.964 249.154 313.128 248.891 313.299C248.373 313.653 247.796 313.995 247.192 314.355C245.971 315.058 244.586 315.766 243.084 316.409C241.581 317.046 240.111 317.545 238.753 317.939C238.07 318.122 237.427 318.299 236.81 318.431C236.502 318.496 236.206 318.569 235.924 318.621C235.635 318.674 235.36 318.719 235.097 318.765C232.991 319.113 231.672 319.126 231.659 319.028L231.665 319.034Z" fill="#5F4740"/>
<path d="M229.847 328.062C229.86 327.925 231.153 328.063 233.187 327.793C234.205 327.662 235.399 327.413 236.692 327.006C237.985 326.599 239.369 326.028 240.761 325.313C243.55 323.863 245.866 322.163 247.559 320.955C249.246 319.735 250.315 319 250.388 319.092C250.46 319.177 249.528 320.083 247.927 321.428C247.126 322.097 246.148 322.878 245.013 323.685C243.878 324.493 242.585 325.319 241.148 326.068C239.711 326.809 238.267 327.38 236.915 327.754C235.563 328.135 234.303 328.338 233.24 328.391C232.177 328.45 231.317 328.391 230.733 328.305C230.149 328.213 229.834 328.115 229.841 328.062H229.847Z" fill="#5F4740"/>
<path d="M424.567 414.36C424.567 414.36 388.592 406.255 366.549 416.388C344.506 426.52 285.982 451.857 282.937 451.601C279.899 451.346 241.6 443.943 234.349 446.201C227.098 448.458 207.922 462.797 203.414 466.177C198.905 469.563 196.11 475.213 198.84 476.585C201.57 477.95 203.959 475.561 203.959 475.561C203.959 475.561 198.84 480.909 201.911 482.957C204.982 485.004 211.131 480.798 211.131 480.798C211.131 480.798 204.989 485.464 207.378 488.535C209.766 491.606 215.686 487.058 215.686 487.058C215.686 487.058 210.908 490.812 213.75 492.859C216.591 494.907 249.705 479.111 256.648 479.544C263.591 479.977 285.096 479.774 292.833 478.409C300.57 477.044 307.763 476.243 323.224 475.056C338.685 473.868 376.34 467.922 403.095 458.801C429.85 449.685 439.772 436.935 433.223 414.97L424.567 414.36Z" fill="#EB9064"/>
<path d="M239.94 464.948C240.098 465.243 233.732 469.017 225.713 473.381C217.694 477.745 211.066 481.046 210.908 480.75C210.751 480.455 217.116 476.682 225.135 472.318C233.148 467.954 239.783 464.653 239.94 464.948Z" fill="#5F4740"/>
<path d="M246.706 472.496C246.831 472.844 239.645 475.653 231.061 479.702C222.464 483.731 215.712 487.465 215.528 487.143C215.443 486.999 217.024 485.87 219.708 484.262C221.054 483.455 222.674 482.543 224.499 481.565C226.33 480.594 228.358 479.57 230.523 478.553C232.689 477.536 234.776 476.63 236.685 475.843C238.601 475.062 240.341 474.393 241.817 473.874C244.77 472.831 246.647 472.332 246.7 472.489L246.706 472.496Z" fill="#5F4740"/>
<path d="M233.187 457.815C233.246 457.992 231.475 458.701 228.81 460.223C227.478 460.985 225.923 461.943 224.217 463.065C222.51 464.181 220.634 465.434 218.652 466.714C210.718 471.852 204.136 475.783 203.952 475.488C203.762 475.199 210.042 470.795 217.969 465.657C219.958 464.377 221.841 463.157 223.6 462.081C225.352 461.004 226.986 460.105 228.397 459.429C231.232 458.077 233.141 457.658 233.187 457.808V457.815Z" fill="#5F4740"/>
<path d="M254.181 344.916C254.227 345.074 253.4 345.461 251.858 346.032C251.47 346.176 251.044 346.327 250.571 346.491C250.099 346.649 249.574 346.8 249.016 346.971C247.894 347.299 246.621 347.692 245.184 348.014C244.468 348.185 243.72 348.362 242.933 348.546C242.152 348.723 241.325 348.867 240.478 349.038C240.052 349.116 239.619 349.202 239.179 349.287C238.956 349.326 238.739 349.372 238.516 349.412C238.293 349.445 238.063 349.477 237.84 349.517C236.928 349.655 235.99 349.792 235.025 349.937C231.16 350.436 226.881 350.783 222.386 350.842C217.884 350.875 213.599 350.619 209.727 350.206C208.762 350.081 207.817 349.963 206.905 349.845C206.675 349.812 206.452 349.786 206.223 349.76C205.999 349.727 205.776 349.687 205.553 349.655C205.113 349.582 204.68 349.51 204.254 349.438C203.401 349.287 202.574 349.162 201.786 349.005C200.999 348.834 200.244 348.677 199.529 348.519C198.085 348.231 196.805 347.863 195.677 347.561C195.112 347.404 194.587 347.266 194.108 347.121C193.629 346.964 193.196 346.82 192.809 346.688C191.254 346.15 190.42 345.776 190.46 345.619C190.506 345.461 191.418 345.533 193.032 345.789C193.432 345.855 193.879 345.934 194.371 346.019C194.863 346.098 195.395 346.177 195.965 346.268C197.107 346.446 198.394 346.695 199.837 346.872C200.553 346.977 201.307 347.082 202.088 347.2C202.869 347.312 203.689 347.391 204.536 347.496C204.956 347.548 205.389 347.601 205.822 347.653C206.039 347.679 206.262 347.706 206.485 347.732C206.708 347.751 206.931 347.771 207.154 347.791C208.06 347.876 208.985 347.955 209.937 348.047C213.75 348.336 217.95 348.519 222.359 348.486C226.769 348.427 230.963 348.145 234.776 347.778C235.727 347.673 236.652 347.568 237.551 347.463C237.775 347.436 237.998 347.41 238.221 347.391C238.444 347.364 238.661 347.331 238.877 347.299C239.31 347.24 239.743 347.174 240.163 347.115C241.003 346.99 241.824 346.898 242.605 346.767C243.385 346.636 244.134 346.511 244.849 346.393C246.286 346.176 247.566 345.901 248.708 345.704C249.278 345.606 249.804 345.507 250.296 345.422C250.781 345.323 251.228 345.238 251.628 345.159C253.236 344.864 254.148 344.772 254.194 344.93L254.181 344.916Z" fill="white"/>
<path d="M202.587 461.943C201.977 462.074 201.228 461.359 200.389 459.908C200.179 459.547 199.962 459.141 199.745 458.688C199.535 458.235 199.332 457.736 199.122 457.198C198.715 456.115 198.256 454.875 197.901 453.477C197.711 452.775 197.527 452.04 197.344 451.272C197.16 450.504 197.022 449.691 196.864 448.857C196.792 448.437 196.714 448.011 196.641 447.578C196.609 447.361 196.563 447.144 196.536 446.921C196.51 446.698 196.477 446.475 196.451 446.252C196.339 445.353 196.235 444.421 196.136 443.47C195.808 439.65 195.749 435.417 196.103 431.001C196.49 426.584 197.258 422.417 198.223 418.709C198.479 417.784 198.741 416.885 199.004 416.019C199.069 415.802 199.135 415.586 199.201 415.376C199.266 415.166 199.345 414.956 199.417 414.746C199.562 414.332 199.713 413.919 199.85 413.519C200.146 412.718 200.415 411.944 200.723 411.215C201.038 410.487 201.34 409.791 201.649 409.135C202.233 407.809 202.889 406.667 203.473 405.67C203.768 405.171 204.05 404.712 204.333 404.305C204.628 403.898 204.903 403.531 205.173 403.209C206.242 401.923 207.102 401.339 207.679 401.568C208.257 401.805 208.5 402.828 208.46 404.443C208.447 404.85 208.421 405.289 208.375 405.768C208.336 406.247 208.303 406.766 208.237 407.317C208.126 408.42 207.916 409.634 207.745 410.992C207.653 411.668 207.542 412.37 207.423 413.099C207.305 413.827 207.22 414.595 207.095 415.376C207.036 415.77 206.971 416.163 206.912 416.57C206.879 416.774 206.846 416.977 206.813 417.18C206.787 417.384 206.761 417.594 206.734 417.804C206.623 418.637 206.505 419.49 206.373 420.37C205.914 423.881 205.455 427.72 205.1 431.769C204.772 435.818 204.588 439.683 204.451 443.22C204.438 444.106 204.411 444.966 204.379 445.806C204.372 446.016 204.359 446.226 204.352 446.429C204.352 446.639 204.352 446.843 204.352 447.046C204.352 447.453 204.339 447.86 204.333 448.253C204.326 449.048 204.28 449.815 204.273 450.55C204.273 451.285 204.26 452.001 204.241 452.683C204.182 454.048 204.182 455.288 204.109 456.391C204.077 456.942 204.031 457.461 203.985 457.94C203.952 458.419 203.906 458.858 203.847 459.259C203.617 460.86 203.204 461.831 202.593 461.962L202.587 461.943Z" fill="white"/>
<path d="M405.221 414.19C405.149 414.446 400.129 412.91 393.724 412.444C387.325 411.932 382.128 412.694 382.095 412.424C382.076 412.319 383.355 411.991 385.475 411.735C385.737 411.709 386.02 411.676 386.308 411.644C386.597 411.611 386.899 411.598 387.214 411.571C387.837 411.519 388.507 411.499 389.209 411.473C390.62 411.44 392.169 411.473 393.796 411.591C395.417 411.716 396.959 411.926 398.344 412.175C399.033 412.306 399.696 412.431 400.306 412.575C400.608 412.648 400.91 412.713 401.185 412.785C401.467 412.858 401.737 412.936 401.992 413.002C404.047 413.573 405.261 414.091 405.228 414.196L405.221 414.19Z" fill="#5F4740"/>
<path d="M69.3241 307.189C69.2978 307.091 70.164 306.763 71.7587 306.238C72.159 306.106 72.6053 305.969 73.0909 305.811C73.5831 305.667 74.1212 305.535 74.6987 305.384C75.8603 305.096 77.1727 304.735 78.6558 304.466C79.3974 304.321 80.1652 304.17 80.9723 304.006C81.7795 303.855 82.6261 303.744 83.4989 303.606C85.2445 303.311 87.1279 303.134 89.1098 302.917C93.0735 302.569 97.4506 302.372 102.038 302.392C106.625 302.431 110.989 302.668 114.946 302.963C116.921 303.127 118.805 303.278 120.557 303.462C122.309 303.632 123.943 303.816 125.433 303.987C131.385 304.689 135.047 305.279 135.027 305.47C135.007 305.673 131.306 305.45 125.334 305.01C123.845 304.899 122.211 304.781 120.458 304.663C118.706 304.531 116.829 304.426 114.861 304.302C110.917 304.085 106.585 303.888 102.038 303.849C97.4899 303.823 93.1587 303.98 89.2344 304.249C87.2722 304.426 85.4085 304.558 83.6761 304.794C82.8098 304.905 81.9633 304.984 81.1627 305.102C80.3621 305.227 79.5877 305.345 78.8527 305.463C77.3762 305.667 76.0571 305.955 74.8955 306.165C74.3115 306.277 73.7668 306.369 73.2747 306.467C72.7759 306.579 72.3231 306.677 71.9162 306.769C70.2821 307.117 69.3634 307.268 69.3306 307.169L69.3241 307.189Z" fill="#5F4740"/>
<path d="M365.61 302.943C365.781 303.048 364.829 304.86 363.386 307.819C363.209 308.187 363.018 308.574 362.821 308.981C362.625 309.388 362.434 309.814 362.231 310.247C361.817 311.12 361.41 312.065 360.964 313.056C360.105 315.051 359.212 317.262 358.352 319.612C357.506 321.968 356.777 324.238 356.161 326.325C355.865 327.369 355.57 328.36 355.334 329.298C355.209 329.764 355.084 330.217 354.973 330.65C354.861 331.083 354.763 331.503 354.664 331.903C353.877 335.099 353.45 337.101 353.253 337.074C353.083 337.048 353.181 334.994 353.739 331.713C353.811 331.306 353.89 330.873 353.969 330.427C354.054 329.981 354.152 329.521 354.257 329.042C354.454 328.084 354.71 327.067 354.973 326.004C355.531 323.877 356.233 321.554 357.092 319.166C357.965 316.777 358.91 314.546 359.836 312.557C360.315 311.566 360.767 310.621 361.227 309.762C361.456 309.329 361.673 308.909 361.889 308.515C362.113 308.121 362.329 307.74 362.533 307.38C364.206 304.505 365.446 302.858 365.591 302.95L365.61 302.943Z" fill="#5F4740"/>
<path d="M350.084 281.465C350.628 281.524 349.526 292.483 350.366 305.969C351.127 319.461 353.516 330.21 352.978 330.335C352.86 330.361 352.591 329.718 352.216 328.524C352.125 328.222 352.02 327.894 351.915 327.526C351.81 327.159 351.711 326.759 351.6 326.332C351.383 325.472 351.127 324.488 350.904 323.399C350.786 322.854 350.668 322.276 350.543 321.679C350.418 321.082 350.313 320.452 350.195 319.809C349.946 318.516 349.742 317.125 349.526 315.662C349.119 312.728 348.778 309.493 348.568 306.08C348.371 302.668 348.332 299.413 348.391 296.453C348.437 294.977 348.476 293.566 348.568 292.253C348.607 291.597 348.64 290.961 348.692 290.357C348.745 289.747 348.797 289.162 348.85 288.611C348.942 287.496 349.08 286.492 349.198 285.612C349.257 285.173 349.309 284.766 349.368 284.385C349.434 284.011 349.493 283.67 349.552 283.361C349.782 282.128 349.972 281.458 350.097 281.471L350.084 281.465Z" fill="#5F4740"/>
<path d="M273.5 46.2146C273.5 46.2146 264.74 50.9198 257.403 42.5396C250.066 34.1594 250.978 15.9553 259.496 7.7917C271 -3.23315 301.752 -2.0191 311.057 8.04108C318.827 16.441 322.043 49.4039 301.135 45.6437C279.971 41.8375 273.5 46.2146 273.5 46.2146Z" fill="#943E27"/>
<path d="M269.786 40.8189C269.615 41.0552 267.916 40.2611 265.816 38.1218C263.722 36.0218 261.34 32.4256 260.317 27.891C259.299 23.3564 259.91 19.0908 260.907 16.2886C261.898 13.4602 263.092 12.01 263.342 12.1544C263.657 12.3119 263.02 13.9787 262.502 16.7152C261.97 19.432 261.681 23.3039 262.594 27.3791C263.512 31.4544 265.429 34.8275 267.069 37.0521C268.71 39.303 270.003 40.5367 269.786 40.8124V40.8189Z" fill="#B15936"/>
<path d="M280.929 39.1465C280.693 39.3106 279.374 38.0177 277.93 35.4256C277.759 35.0975 277.576 34.7562 277.385 34.3953C277.202 34.0343 277.044 33.6471 276.873 33.2468C276.506 32.4528 276.217 31.5669 275.902 30.635C275.331 28.7582 274.878 26.632 274.675 24.3679C274.491 22.1039 274.583 19.9318 274.826 17.9827C274.983 17.0115 275.115 16.0927 275.344 15.2462C275.449 14.8262 275.535 14.4128 275.659 14.0256C275.784 13.645 275.909 13.2709 276.02 12.9231C277.005 10.1275 278.087 8.62469 278.343 8.74937C278.665 8.89374 278.147 10.6 277.615 13.3496C277.549 13.6974 277.484 14.0518 277.412 14.4324C277.339 14.8065 277.307 15.2068 277.247 15.6071C277.11 16.4142 277.057 17.2937 276.965 18.2058C276.854 20.0433 276.834 22.0579 276.998 24.171C277.188 26.2776 277.549 28.266 277.976 30.0575C278.219 30.9434 278.422 31.7966 278.691 32.571C278.822 32.9581 278.921 33.3453 279.052 33.6997C279.183 34.0606 279.308 34.4018 279.433 34.7299C280.424 37.3549 281.224 38.9496 280.929 39.1399V39.1465Z" fill="#B15936"/>
<path d="M291.344 38.1613C291.101 37.9382 292.079 36.5994 293.352 34.3288C293.509 34.0467 293.673 33.7448 293.844 33.4364C294.014 33.1279 294.159 32.7867 294.329 32.4454C294.684 31.7695 294.973 31.0148 295.314 30.2273C295.924 28.6392 296.502 26.8543 296.922 24.9315C297.315 23.0087 297.519 21.145 297.598 19.4453C297.604 18.5922 297.65 17.7784 297.598 17.0238C297.578 16.6431 297.584 16.2757 297.558 15.9213C297.525 15.567 297.499 15.2322 297.473 14.9041C297.237 12.312 296.882 10.6911 297.197 10.5861C297.447 10.4942 298.333 11.9707 298.989 14.6547C299.061 14.9894 299.14 15.3438 299.218 15.7113C299.297 16.0788 299.33 16.4725 299.389 16.8728C299.52 17.68 299.553 18.5463 299.593 19.4585C299.619 21.2894 299.468 23.3105 299.035 25.3843C298.582 27.4514 297.906 29.3612 297.138 31.0214C296.725 31.8417 296.344 32.6227 295.904 33.3051C295.688 33.6464 295.498 33.9876 295.274 34.2961C295.051 34.5979 294.835 34.8867 294.631 35.1688C292.945 37.3607 291.534 38.3517 291.344 38.1613Z" fill="#B15936"/>
<path d="M302.231 41.1406C302.086 40.9372 303.025 40.0907 304.383 38.6404C304.724 38.2729 305.092 37.8791 305.466 37.4328C305.853 36.9997 306.227 36.5076 306.634 35.9957C307.421 34.9523 308.229 33.7776 308.983 32.4783C309.725 31.1723 310.329 29.8795 310.827 28.672C311.057 28.0617 311.3 27.4908 311.47 26.933C311.667 26.3883 311.825 25.8633 311.969 25.3908C312.534 23.4877 312.789 22.254 313.039 22.2737C313.242 22.2868 313.4 23.573 313.111 25.6402C313.039 26.1521 312.94 26.7165 312.789 27.3136C312.665 27.9174 312.461 28.5408 312.258 29.197C311.812 30.503 311.201 31.9008 310.414 33.292C309.613 34.6767 308.708 35.9038 307.815 36.9538C307.349 37.4657 306.916 37.9513 306.463 38.3647C306.03 38.7978 305.591 39.1653 305.184 39.4869C303.55 40.7797 302.362 41.3047 302.244 41.134L302.231 41.1406Z" fill="#B15936"/>
<path d="M266.551 51.3861C266.551 50.7102 266.577 50.0606 266.63 49.4831C266.794 47.6128 267.509 45.7162 268.959 44.5219C271.958 42.0478 278.199 42.5401 281.835 42.6713C285.647 42.8091 289.46 42.9534 293.279 43.0912C296.121 43.1962 299.317 43.4653 301.148 45.644C302.874 47.6981 302.729 50.684 302.493 53.3549C302.283 55.7042 301.883 58.3883 299.894 59.6483C298.602 60.4686 296.968 60.4488 295.439 60.4029C288.804 60.206 282.176 60.0026 275.541 59.8058C273.343 59.7401 270.318 60.3832 268.697 58.6901C267.063 56.9904 266.577 53.9717 266.564 51.3861H266.551Z" fill="#F0C688"/>
<path d="M301.364 66.9913C301.364 66.9913 306.444 88.6276 277.792 99.2521C249.141 109.877 238.916 125.561 244.39 143.266C249.863 160.972 271.433 197.354 232.479 208.621C232.479 208.621 243.425 191.644 235.051 185.968C226.678 180.291 215.41 176.387 216.06 162.888C216.709 149.389 227.327 149.002 225.719 138.574C224.112 128.14 211.873 120.737 217.674 94.3369C223.469 67.9363 244.849 43.4716 294.041 50.874C294.041 50.874 318.282 45.9522 332.772 64.491C347.721 83.6139 334.222 128.31 327.817 127.969C327.817 127.969 327.332 81.5336 301.371 66.9979L301.364 66.9913Z" fill="#943E27"/>
<path d="M288.922 74.787C288.922 74.787 288.049 88.7322 301.299 93.6146C314.548 98.4971 326.951 110.703 327.811 127.962C327.811 127.962 344.886 62.4103 292.754 63.5719C292.754 63.5719 289.093 66.9384 288.922 74.787Z" fill="#99361D"/>
<path d="M243.963 127.85C243.759 127.85 243.477 126.426 243.989 123.913C244.239 122.659 244.718 121.157 245.525 119.516C246.332 117.882 247.467 116.13 248.957 114.384C249.712 113.524 250.538 112.652 251.464 111.812C252.396 110.972 253.4 110.158 254.482 109.37C256.648 107.802 259.102 106.365 261.734 105.026C264.359 103.687 267.168 102.434 270.009 101.128C272.844 99.8156 275.751 98.3981 278.665 96.8494C281.572 95.2941 284.361 93.6929 286.861 91.967C287.17 91.7439 287.472 91.5273 287.78 91.3108C288.075 91.0811 288.377 90.8448 288.673 90.6151C289.257 90.1492 289.86 89.7029 290.425 89.2305C290.976 88.7448 291.521 88.2723 292.059 87.7998C292.61 87.3404 293.083 86.8155 293.588 86.3298C295.543 84.348 297.269 82.3268 298.543 80.2334C299.842 78.1531 300.78 76.0729 301.423 74.091C302.027 72.096 302.322 70.2257 302.46 68.5589C302.493 68.1454 302.486 67.7386 302.5 67.3448C302.5 66.9576 302.546 66.577 302.513 66.2161C302.467 65.4942 302.473 64.8314 302.414 64.2342C302.349 63.6371 302.303 63.1055 302.27 62.6395C302.217 62.1736 302.158 61.7864 302.132 61.4649C302.073 60.8217 302.099 60.4543 302.217 60.4214C302.336 60.3821 302.539 60.6774 302.821 61.2746C302.959 61.5765 303.136 61.9505 303.3 62.4033C303.445 62.8627 303.609 63.4008 303.786 64.0045C303.957 64.6148 304.055 65.3104 304.206 66.0717C304.285 66.4523 304.298 66.8527 304.344 67.2726C304.376 67.6926 304.436 68.1258 304.449 68.5786C304.495 70.3964 304.357 72.4832 303.851 74.7407C303.307 76.985 302.395 79.3671 301.076 81.7362C299.776 84.1183 297.985 86.4021 295.944 88.6005C295.419 89.132 294.92 89.7226 294.343 90.228C293.778 90.7464 293.207 91.2714 292.63 91.8029C292.039 92.3148 291.416 92.8004 290.805 93.3123C290.497 93.5616 290.189 93.8176 289.867 94.0669C289.539 94.3098 289.211 94.5526 288.883 94.8019C286.218 96.705 283.337 98.3785 280.345 99.9797C277.346 101.574 274.373 102.998 271.459 104.291C268.546 105.577 265.763 106.746 263.191 107.96C260.618 109.174 258.249 110.434 256.169 111.792C255.132 112.475 254.161 113.177 253.268 113.885C252.376 114.601 251.569 115.349 250.821 116.084C249.351 117.58 248.176 119.076 247.277 120.481C246.378 121.885 245.761 123.197 245.328 124.3C244.462 126.505 244.258 127.863 243.976 127.844L243.963 127.85Z" fill="#B15936"/>
<path d="M233.634 128.815C233.555 128.901 233.253 128.743 232.741 128.356C232.617 128.257 232.472 128.152 232.321 128.021C232.183 127.883 232.033 127.726 231.868 127.562C231.704 127.391 231.534 127.207 231.35 127.011C231.179 126.801 231.009 126.571 230.825 126.328C229.342 124.405 227.813 121.006 227.603 116.583C227.504 114.385 227.708 111.943 228.417 109.43C229.132 106.903 230.32 104.364 231.941 101.955C235.169 97.0992 240.045 92.9124 245.512 89.4146C250.991 85.9234 256.425 83.2197 261.071 80.4044C263.401 79.0066 265.54 77.5891 267.443 76.1519C269.346 74.7082 271.007 73.2317 272.424 71.788C275.266 68.9005 277.077 66.1377 278.147 64.1296C279.229 62.1215 279.708 60.9074 279.958 60.9796C280.161 61.0255 280.115 62.3708 279.354 64.6611C278.606 66.9383 276.985 70.1145 274.189 73.4023C272.798 75.0429 271.125 76.7229 269.195 78.3438C267.259 79.9647 265.081 81.5397 262.718 83.0556C258.013 86.1137 252.606 88.9093 247.336 92.2692C242.093 95.6226 237.545 99.4551 234.506 103.734C232.977 105.86 231.836 108.078 231.101 110.25C230.366 112.436 230.051 114.595 229.992 116.557C229.887 120.514 230.904 123.664 231.941 125.639C232.964 127.634 233.824 128.625 233.627 128.822L233.634 128.815Z" fill="#B15936"/>
<path d="M333.337 100.99C333.225 100.977 333.166 100.334 333.166 99.1987C333.166 98.9165 333.166 98.6016 333.172 98.2603C333.172 97.9191 333.14 97.545 333.12 97.1382C333.074 96.3376 333.087 95.4254 332.956 94.4279C332.903 93.9292 332.857 93.4042 332.798 92.8595C332.739 92.3148 332.621 91.7569 332.536 91.1729C332.385 90.0048 332.07 88.7776 331.775 87.4914C331.092 84.932 330.147 82.1759 328.848 79.4065C327.509 76.6569 325.954 74.1959 324.385 72.0566C323.559 71.0197 322.81 70.0092 321.99 69.156C321.59 68.7229 321.229 68.2766 320.842 67.896C320.448 67.5154 320.074 67.1413 319.713 66.7935C319.017 66.0651 318.302 65.5008 317.705 64.9626C317.403 64.7002 317.127 64.4442 316.865 64.2211C316.596 64.0111 316.346 63.8142 316.123 63.637C315.244 62.9217 314.778 62.482 314.837 62.3836C314.896 62.2852 315.48 62.5476 316.491 63.1054C316.747 63.2498 317.022 63.4074 317.331 63.5846C317.626 63.7683 317.934 63.998 318.276 64.2342C318.939 64.7133 319.733 65.2317 320.5 65.9273C320.894 66.2686 321.308 66.6229 321.734 66.9904C322.161 67.3645 322.554 67.7976 322.994 68.2307C323.88 69.0707 324.707 70.0879 325.593 71.1379C327.286 73.3035 328.953 75.8431 330.344 78.7043C331.702 81.5786 332.641 84.4727 333.258 87.1501C333.52 88.502 333.789 89.7751 333.894 90.9957C333.953 91.606 334.045 92.1835 334.072 92.7544C334.091 93.3188 334.104 93.8635 334.124 94.3819C334.183 95.4188 334.091 96.3572 334.045 97.1775C334.019 97.5844 333.999 97.9716 333.96 98.3194C333.901 98.6672 333.855 98.9822 333.809 99.271C333.612 100.413 333.448 101.03 333.337 101.01V100.99Z" fill="#B15936"/>
<path d="M330.554 114.602C330.337 114.615 330.173 112.673 329.406 109.674C329.307 109.3 329.202 108.906 329.091 108.499C328.979 108.092 328.821 107.679 328.684 107.252C328.421 106.38 328.041 105.494 327.667 104.542C326.853 102.678 325.816 100.683 324.53 98.7146C323.217 96.7656 321.774 95.0462 320.369 93.5697C319.641 92.861 318.965 92.1588 318.263 91.5813C317.915 91.286 317.6 90.9841 317.265 90.7216C316.93 90.4657 316.609 90.2163 316.307 89.9801C313.84 88.1163 312.114 87.2107 312.205 87.0204C312.245 86.9417 312.711 87.0926 313.531 87.4404C313.735 87.5323 313.964 87.6307 314.207 87.7357C314.45 87.8538 314.706 87.9982 314.981 88.1491C315.533 88.4576 316.176 88.7857 316.825 89.2451C317.154 89.4682 317.501 89.6978 317.862 89.9407C318.223 90.19 318.564 90.4788 318.939 90.7675C319.693 91.3253 320.415 92.0209 321.196 92.7363C322.699 94.2194 324.221 95.9847 325.586 98.0059C326.925 100.047 327.968 102.134 328.749 104.096C329.104 105.087 329.465 106.025 329.688 106.937C329.806 107.39 329.944 107.823 330.036 108.25C330.121 108.676 330.2 109.083 330.278 109.477C330.456 110.251 330.501 110.973 330.58 111.603C330.613 111.918 330.646 112.207 330.666 112.476C330.666 112.745 330.672 112.994 330.679 113.218C330.679 114.104 330.639 114.596 330.554 114.602Z" fill="#B15936"/>
<path d="M244.79 195.174C244.652 195.043 245.236 194.328 245.978 192.904C246.713 191.493 247.612 189.314 247.703 186.518C247.743 185.134 247.572 183.618 247.054 182.089C246.548 180.56 245.722 179.011 244.554 177.639C243.385 176.255 241.889 175.119 240.078 174.26C238.273 173.374 236.206 172.718 234.054 171.891C232.984 171.471 231.901 171.011 230.871 170.434C229.841 169.863 228.889 169.18 228.023 168.406C227.163 167.625 226.395 166.733 225.811 165.729C225.227 164.725 224.847 163.589 224.742 162.447C224.63 161.312 224.774 160.19 225.103 159.199C225.431 158.201 225.903 157.329 226.408 156.548C227.432 154.999 228.568 153.798 229.558 152.702C230.556 151.613 231.435 150.648 232.118 149.743C232.813 148.85 233.299 148.017 233.627 147.301C234.277 145.871 234.323 144.939 234.513 144.945C234.644 144.932 234.94 145.904 234.506 147.616C234.283 148.463 233.863 149.46 233.227 150.497C232.597 151.541 231.763 152.637 230.851 153.798C229.939 154.96 228.922 156.2 228.095 157.598C227.275 158.989 226.704 160.577 226.934 162.205C227.038 163.012 227.321 163.812 227.78 164.561C228.239 165.315 228.863 166.017 229.585 166.654C230.307 167.29 231.133 167.861 232.026 168.354C232.912 168.839 233.89 169.259 234.92 169.659C236.974 170.46 239.113 171.143 241.121 172.166C242.125 172.672 243.09 173.262 243.963 173.958C244.836 174.647 245.597 175.428 246.26 176.248C248.911 179.562 249.751 183.539 249.39 186.65C249.049 189.793 247.789 192.07 246.759 193.415C245.715 194.78 244.882 195.286 244.79 195.181V195.174Z" fill="#B15936"/>
<path d="M269.314 57.8633C269.314 57.988 268.611 58.1324 267.365 58.2898C267.05 58.3227 266.702 58.3621 266.328 58.408C265.947 58.4605 265.54 58.5392 265.1 58.6114C264.221 58.7689 263.217 58.8739 262.134 59.143C261.59 59.2611 261.019 59.3858 260.421 59.5104C259.831 59.6417 259.227 59.8386 258.591 60.0092C257.317 60.3242 256.012 60.8164 254.62 61.2889C251.877 62.3389 248.944 63.6973 246.03 65.4363C243.143 67.2082 240.583 69.1835 238.385 71.1325C237.322 72.1431 236.278 73.0815 235.412 74.0593C234.972 74.5384 234.513 74.9846 234.126 75.4506C233.739 75.9165 233.365 76.3693 233.01 76.7959C232.269 77.6293 231.711 78.4759 231.166 79.1781C230.904 79.539 230.641 79.8605 230.418 80.1689C230.208 80.4839 230.011 80.7727 229.834 81.0352C229.119 82.0721 228.666 82.6233 228.554 82.5642C228.443 82.5051 228.679 81.8423 229.217 80.6742C229.355 80.3855 229.506 80.0574 229.67 79.7096C229.847 79.3618 230.07 79.0074 230.3 78.6136C230.773 77.8393 231.271 76.9205 231.967 76.0084C232.302 75.5424 232.656 75.0568 233.023 74.545C233.397 74.0397 233.837 73.5606 234.27 73.0356C235.117 71.979 236.154 70.9685 237.223 69.8857C239.441 67.7988 242.073 65.7054 245.072 63.8613C248.091 62.0567 251.168 60.6917 254.043 59.6942C255.5 59.248 256.871 58.7952 258.203 58.5327C258.866 58.3883 259.496 58.2242 260.113 58.1258C260.73 58.0339 261.327 57.9486 261.898 57.8633C263.027 57.6664 264.07 57.6468 264.982 57.5877C265.435 57.568 265.862 57.5352 266.249 57.5352C266.636 57.5483 266.99 57.568 267.312 57.5746C268.592 57.6402 269.294 57.7386 269.294 57.8633H269.314Z" fill="#B15936"/>
</svg>
